<svg xmlns="http://www.w3.org/2000/svg" width="491" height="517.799" viewBox="0 0 491 517.799">
  <g id="Group_10852" data-name="Group 10852" transform="translate(-70 -394.59)">
    <text id="_HUDDLE" data-name=" HUDDLE" transform="translate(78 829.89)" fill="#2b3990" stroke="#2b3990" stroke-width="8" font-size="100" font-family="Poppins-Regular, Poppins" letter-spacing="0.08em"><tspan x="0" y="0" xml:space="preserve"> HUDDLE</tspan></text>
    <text id="ARENA" transform="translate(230.5 892.39)" fill="#2b3990" stroke="#2b3990" stroke-width="2" font-size="50" font-family="Poppins-Regular, Poppins" letter-spacing="0.1em"><tspan x="0" y="0">ARENA</tspan></text>
    <g id="Ellipse_26" data-name="Ellipse 26" transform="translate(524 698)" fill="none" stroke="#2b3990" stroke-width="4">
      <circle cx="18.5" cy="18.5" r="18.5" stroke="none"/>
      <circle cx="18.5" cy="18.5" r="16.5" fill="none"/>
    </g>
    <text id="R" transform="translate(534.5 725)" fill="#2b3990" font-size="25" font-family="Poppins-Bold, Poppins" font-weight="700" letter-spacing="0.08em"><tspan x="0" y="0">R</tspan></text>
    <path id="Path_10111" data-name="Path 10111" d="M810.152,2081.274l.152-.431c.139-.431.279-.85.406-1.268l.266-.787c.089-.291.165-.583.241-.887s.228-.761.33-1.154a2.02,2.02,0,0,0,0-.266,58.119,58.119,0,0,0,1.775-11.64v-3.74a59.831,59.831,0,0,0-1.141-10.626h0c-.2-1.015-.431-2-.672-2.98l-.076-.253c-.089-.355-.178-.685-.279-1.027s-.089-.355-.152-.533-.152-.494-.228-.735l-.228-.76a1.517,1.517,0,0,0-.178-.508c-.063-.165-.2-.634-.317-.951a1.5,1.5,0,0,0-.1-.254,44.553,44.553,0,0,0-3.309-7.253l-62.209-107.782c-.33-.571-.672-1.129-1.014-1.674l-.178-.3c-.292-.456-.6-.9-.888-1.344l-.38-.6-.647-.888c-.228-.317-.444-.647-.685-.951l-.266-.355A57.576,57.576,0,0,0,730.344,1911l-.1-.076-1.484-1.141-.228-.165-1.369-.976-.431-.292-1.179-.786-.685-.418-.951-.583-.964-.558-.659-.38-1.268-.7-.33-.177a56.242,56.242,0,0,0-21.429-6.162H572.285a57.826,57.826,0,0,0-24.967,5.566l-.228.114-1.509.748-.495.266-1.179.634-.723.418-.913.533c-.355.216-.71.431-1.052.66s-.355.2-.52.317c-.456.291-.9.6-1.344.9l-.177.114a56.735,56.735,0,0,0-12.807,12.084l-.19.228-.495.672-.342.469-.254.38c-.178.254-.355.494-.52.748h0a22.582,22.582,0,0,0-1.268,2.1l-32,55.438-30.179,52.268h0c-.393.684-.774,1.369-1.129,2.066s-.609,1.179-.888,1.763l-.152.291a57.731,57.731,0,0,0-5.617,22.228,3.436,3.436,0,0,1,0,.355v1.268a1.143,1.143,0,0,1,0,.215h0v.6a4.919,4.919,0,0,0,0,.609v.646h0v1.826h0v.837a5.117,5.117,0,0,0,.063.964h0l.076.824a3.455,3.455,0,0,0,.089.951h0a5.24,5.24,0,0,0,.1.761v.088a5.155,5.155,0,0,0,.114.888h0a3.8,3.8,0,0,0,.1.647v.127a5.832,5.832,0,0,0,.14.926h0l.114.583a5.376,5.376,0,0,0,.2,1.078h0a2.6,2.6,0,0,0,.089.431l.266,1.179h0a2.2,2.2,0,0,1,.063.279c.114.444.216.888.33,1.268a.306.306,0,0,1,0,.1,49.3,49.3,0,0,0,4.755,11.869L522.059,2196.7c.3.52.609,1.027.926,1.534l.266.444c.317.507.647.989.976,1.483l.292.432h0c.3.444.621.875.926,1.268.139.177.266.367.393.545l.7.9c.228.279.444.571.672.862s.228.266.342.406c12.87,15.711,31,21,42.39,21.024H696.677l1.522-.076h.786l1.014-.1,1.268-.114.469-.063,1.737-.241h0c20.288-3.157,34.135-16.357,39.892-26.3L805.5,2090.923a57.757,57.757,0,0,0,3.918-8.166h0A5.078,5.078,0,0,0,810.152,2081.274ZM678.278,2206.9a46.424,46.424,0,0,0-31-34.554,5.452,5.452,0,0,1-.748-10.017,28.213,28.213,0,0,0,15.216-25.626,28.644,28.644,0,0,0-26.933-27.668,28.264,28.264,0,0,0-14.481,53.257,5.4,5.4,0,0,1-.925,10.017,45.9,45.9,0,0,0-31.041,34.553H573.2a41.732,41.732,0,0,1-16.142-3.411h-.089l-1-.457-.241-.1-.773-.394-.482-.241c-.241-.114-.482-.253-.723-.393l-.533-.279-.71-.419-.545-.33a6.417,6.417,0,0,1-.558-.355l-.71-.444-.38-.267-.875-.608h0l-.583-.444-.558-.419-.1-.076-.621-.507-.621-.507-.355-.317c-.292-.253-.583-.507-.862-.773l-.127-.114a44.3,44.3,0,0,1-7.786-9.763l-7.38-12.795a46.435,46.435,0,0,0,14.417-44.14,5.452,5.452,0,0,1,8.306-5.655,28.165,28.165,0,0,0,29.8.38,28.619,28.619,0,0,0,10.5-37.153,28.264,28.264,0,0,0-53.4,14.113,5.4,5.4,0,0,1-9.13,4.2,45.9,45.9,0,0,0-45.446-9.612l-7.608-13.111h0l-.139-.253a41.554,41.554,0,0,1-5.072-24.194,42.316,42.316,0,0,1,5.389-16.484l7.38-12.794a46.46,46.46,0,0,0,45.433-9.573,5.4,5.4,0,0,1,6.34-.621,5.338,5.338,0,0,1,2.7,4.983,28.15,28.15,0,0,0,14.57,25.994,28.62,28.62,0,0,0,37.419-9.485,28.251,28.251,0,0,0-38.9-39.181,5.415,5.415,0,0,1-8.217-5.808,45.928,45.928,0,0,0-14.4-44.178l7.608-13.111h0a41.377,41.377,0,0,1,20.035-17.321h.063a42.664,42.664,0,0,1,15.483-2.954h14.773a46.423,46.423,0,0,0,31,34.554,5.452,5.452,0,0,1,.748,10.017,28.188,28.188,0,0,0-15.216,25.627,28.632,28.632,0,0,0,26.933,27.656,28.251,28.251,0,0,0,14.481-53.256,5.4,5.4,0,0,1,.926-10.018,45.915,45.915,0,0,0,31.041-34.553h15.216a41.347,41.347,0,0,1,25.018,8.686,42.608,42.608,0,0,1,10.347,11.97l7.393,12.794a46.422,46.422,0,0,0-14.417,44.127,5.427,5.427,0,0,1-2.637,5.82,5.35,5.35,0,0,1-5.668-.152,28.188,28.188,0,0,0-29.811-.381,28.633,28.633,0,0,0-10.487,37.153,28.251,28.251,0,0,0,53.384-14.113,5.4,5.4,0,0,1,9.142-4.2,45.889,45.889,0,0,0,45.446,9.611l7.608,13.112h0a41.5,41.5,0,0,1,5.313,22.926,3.284,3.284,0,0,0,0,.355,4.444,4.444,0,0,1-.1,1.154c-.1.38,0,.469-.089.7a4.22,4.22,0,0,0-.1.849c-.038.292-.1.66-.165.989s0,.381-.089.583c-.076.418-.178.85-.266,1.268a.552.552,0,0,1-.063.317c-.089.38-.178.748-.279,1.128a1.985,1.985,0,0,1-.127.507c-.051.177-.19.647-.291.976s-.114.444-.19.672-.19.571-.292.862-.178.532-.279.811-.19.495-.279.748l-.368.938-.266.634c-.165.355-.3.71-.469,1.065s-.165.342-.254.52c-.19.406-.38.8-.583,1.268,0,.14-.152.279-.216.418-.241.444-.469.888-.723,1.332l-4.743,7.875-2.764,4.78a46.423,46.423,0,0,0-45.433,9.574,5.4,5.4,0,0,1-6.34.621,5.338,5.338,0,0,1-2.7-4.983,28.151,28.151,0,0,0-14.57-25.995,28.62,28.62,0,0,0-37.419,9.485,28.252,28.252,0,0,0,38.9,39.182,5.4,5.4,0,0,1,8.217,5.808,45.889,45.889,0,0,0,14.392,44.165l-7.608,13.124h0a39.133,39.133,0,0,1-2.181,3.335,41.71,41.71,0,0,1-13.581,11.969l-.1.064-1.065.545-.253.14-1.167.545-.216.1-1.065.456-.38.153-.977.38-.52.19-.913.3-.634.2-.875.253-.736.216-.8.19-.875.216-.723.152-1,.19-.685.114c-.368.064-.723.127-1.1.165l-.609.075-1.268.14h-.52l-1.382.1h-1.978Z" transform="translate(-309.276 -1504)" fill="#2b3990"/>
  </g>
</svg>
